# xmcd
#
# Track frame offsets:
#	150
#	14162
#	30467
#	46779
#	68710
#	79698
#	91803
#	106878
#	121689
#	132056
#
# Disc length: 1897
#
# Revision: 1
# Processed by: cddbd v1.5.1PL0 Copyright (c) Steve Scherf et al.
# Submitted via: VisiTrax 2.9.0.147 - For more info visit www.synapsa.com
# Normalized: r0:DSETVAR1
#
DISCID=6f07670a
DTITLE=Various Artist - Back in the Saddle
DYEAR=1900
DGENRE=
TTITLE0=Carl Perkins - Georga Courtroom
TTITLE1=Johnny Cash - A Boy Named Sue
TTITLE2=Loretta Lynn - One's On The Way
TTITLE3=Willie Nelson - City Of New Orleans
TTITLE4=Donna Fargo - Wishful Thinking
TTITLE5=Jim Reeves - Your Old Love Letters
TTITLE6=Jerry Lee Lewis - Cold, Cold Heart
TTITLE7=Johnny Cash - Goodby Little Darling Goodby
TTITLE8=Billie Jo Spears - It Makes No Difference Now
TTITLE9=Faron Young - Here Comes My Baby Back Again
EXTD=
EXTT0=
EXTT1=
EXTT2=
EXTT3=
EXTT4=
EXTT5=
EXTT6=
EXTT7=
EXTT8=
EXTT9=
PLAYORDER=
